<?xml version="1.0" encoding="UTF-8"?>
<svg width="148px" height="72px" viewBox="0 0 148 72" version="1.1" xmlns="http://www.w3.org/2000/svg" xmlns:xlink="http://www.w3.org/1999/xlink">
    <!-- Generator: Sketch 48.2 (47327) - http://www.bohemiancoding.com/sketch -->
    <desc>Created with Sketch.</desc>
    <defs>
        <path d="M0.183854979,32.4 L0.183854979,20.2378912 C0.183854979,18.6301961 1.04155013,17.1446245 2.43385498,16.3407769 L29.4919275,0.71879147 C30.8842323,-0.0850561075 32.5996226,-0.0850561075 33.9919275,0.71879147 L61.05,16.3407769 C62.4423048,17.1446245 63.3,18.6301961 63.3,20.2378912 L63.3,41.4 L54.3,41.4 L54.2988096,28.2 C54.2986425,25.7148368 52.2839728,23.7003026 49.7988096,23.7003026 L36.6,23.7 C34.1147186,23.7 32.1,25.7147186 32.1,28.2 L32.1,40.804687 C32.1,43.2899684 34.1147186,45.304687 36.6,45.304687 L50.4,45.304687 L50.4,48.9 C50.4,49.3970563 49.9970563,49.8 49.5,49.8 L36,49.8 L36,53.7 L49.7988096,53.6993631 C52.2838423,53.6993631 54.2984579,51.6850326 54.2988096,49.2 L54.3,45.2881661 L63.3,45.2881661 L63.3,51.4818621 C63.3,53.0895573 62.4423048,54.5751289 61.05,55.3789764 L33.9919275,71.0009619 C32.5996226,71.8048095 30.8842323,71.8048095 29.4919275,71.0009619 L2.43385498,55.3789764 C1.04155013,54.5751289 0.183854979,53.0895573 0.183854979,51.4818621 L0.183854979,36.3 L8.1,36.3 L8.09999999,40.8 C8.09999999,43.2852814 10.1147186,45.3 12.6,45.3 L30,45.3 L30,28.2 C30,25.7147186 27.9852814,23.7 25.5,23.7 L8.1,23.7 L8.1,27.6 L25.2,27.6 C25.6970563,27.6 26.1,28.0029437 26.1,28.5 L26.1,32.4 L0.183854979,32.4 Z" id="path-1"></path>
    </defs>
    <g id="plunker-banner" stroke="none" stroke-width="1" fill="none" fill-rule="evenodd">
        <g id="Desktop-HD" transform="translate(-91.000000, -659.000000)">
            <g id="ag-grid-banner" transform="translate(83.000000, 599.000000)">
                <g id="Logo" transform="translate(8.000000, 60.000000)">
                    <path d="M143.1,16.5 L148.2,16.5 L148.2,45.3 L130.5,45.3 C128.014719,45.3 126,43.2852814 126,40.8 L126,28.8 C126,26.3147186 128.014719,24.3 130.5,24.3 L143.1,24.3 L143.1,16.5 Z M132,29.4 C131.502944,29.4 131.1,29.8029437 131.1,30.3 L131.1,39.3 C131.1,39.7970563 131.502944,40.2 132,40.2 L143.1,40.2 L143.1,29.4 L132,29.4 Z" id="d" fill="#000000"></path>
                    <g id="i" stroke-width="1" transform="translate(118.800000, 16.500000)">
                        <polygon id="Path-6" fill="#000000" points="0 7.8 5.1 7.8 5.1 28.8 0 28.8"></polygon>
                        <polygon id="Path-7" fill="#E11F22" points="0 1.13686838e-13 5.1 1.13686838e-13 5.1 5.1 0 5.1"></polygon>
                    </g>
                    <path d="M99.3,45.3 L104.4,45.3 L104.4,30.3 C104.4,29.8029437 104.802944,29.4 105.3,29.4 L116.7,29.4 L116.7,24.3 L103.8,24.3 C101.314719,24.3 99.3,26.3147186 99.3,28.8 L99.3,45.3 Z" id="r" fill="#000000"></path>
                    <path d="M97.2,25.8 L97.2,22.8 C97.2,20.3147186 95.1852814,18.3 92.7,18.3 L74.7,18.3 C72.2147186,18.3 70.2,20.3147186 70.2,22.8 L70.2,40.8 C70.2,43.2852814 72.2147186,45.3 74.7,45.3 L92.7,45.3 C95.1852814,45.3 97.2,43.2852814 97.2,40.8 L97.2,30 L86.1,30 L86.1,35.1 L92.1,35.1 L92.1,39.3 C92.1,39.7970563 91.6970563,40.2 91.2,40.2 L76.2,40.2 C75.7029437,40.2 75.3,39.7970563 75.3,39.3 L75.3,24.3 C75.3,23.8029437 75.7029437,23.4 76.2,23.4 L91.2,23.4 C91.6970563,23.4 92.1,23.8029437 92.1,24.3 L92.1,25.8 L97.2,25.8 Z" id="G" fill="#000000"></path>
                    <g id="ag" stroke-width="1">
                        <g id="Combined-Shape">
                            <mask id="mask-2" fill="white">
                                <use xlink:href="#path-1"></use>
                            </mask>
                            <use fill="#E11F22" xlink:href="#path-1"></use>
                        </g>
                        <rect id="g" fill="#E11F22" x="36" y="27.6" width="14.4" height="13.8" rx="0.9"></rect>
                        <path d="M12,36.3 L26.1,36.3 L26.1,41.4 L12.9,41.4 C12.4029437,41.4 12,40.9970563 12,40.5 L12,36.3 Z" id="Combined-Shape" fill="#E11F22"></path>
                    </g>
                </g>
            </g>
        </g>
    </g>
</svg>
