<?xml version="1.0" encoding="UTF-8"?>
<svg width="170px" height="205px" viewBox="0 0 170 205" version="1.1" xmlns="http://www.w3.org/2000/svg" xmlns:xlink="http://www.w3.org/1999/xlink">
    <!-- Generator: Sketch 48.2 (47327) - http://www.bohemiancoding.com/sketch -->
    <desc>Created with Sketch.</desc>
    <defs></defs>
    <g id="plunker-banner" stroke="none" stroke-width="1" fill="none" fill-rule="evenodd" stroke-linecap="square" stroke-opacity="0.2">
        <g id="Desktop-HD" transform="translate(-83.000000, -599.000000)" stroke="#9B9B9B">
            <g id="ag-grid-banner" transform="translate(83.000000, 599.000000)">
                <g id="Group">
                    <g transform="translate(-127.000000, -54.000000)">
                        <path d="M272.157123,207.904477 L294.820898,220.989413 C295.981152,221.659286 296.695898,222.897263 296.695898,224.237009 L296.695898,250.406882 C296.695898,251.746628 295.981152,252.984604 294.820898,253.654477 L272.157123,266.739413 C270.996869,267.409286 269.567377,267.409286 268.407123,266.739413 L245.743348,253.654477 C244.583094,252.984604 243.868348,251.746628 243.868348,250.406882 L243.868348,224.237009 C243.868348,222.897263 244.583094,221.659286 245.743348,220.989413 L268.407123,207.904477 C269.567377,207.234604 270.996869,207.234604 272.157123,207.904477 Z" id="Mask" stroke-width="0.5"></path>
                        <path d="M272.532123,122.120983 L299.64205,137.772907 C301.034355,138.576755 301.89205,140.062326 301.89205,141.670021 L301.89205,172.973869 C301.89205,174.581564 301.034355,176.067136 299.64205,176.870983 L272.532123,192.522907 C271.139818,193.326755 269.424428,193.326755 268.032123,192.522907 L240.922196,176.870983 C239.529891,176.067136 238.672196,174.581564 238.672196,172.973869 L238.672196,141.670021 C238.672196,140.062326 239.529891,138.576755 240.922196,137.772907 L268.032123,122.120983 C269.424428,121.317136 271.139818,121.317136 272.532123,122.120983 Z" id="Mask-Copy" stroke-width="0.6" transform="translate(270.282123, 157.321945) rotate(5.000000) translate(-270.282123, -157.321945) "></path>
                        <path d="M169.882123,79.9004061 L213.344609,104.993484 C215.572297,106.27964 216.944609,108.656555 216.944609,111.228867 L216.944609,161.415023 C216.944609,163.987335 215.572297,166.36425 213.344609,167.650406 L169.882123,192.743484 C167.654435,194.02964 164.909811,194.02964 162.682123,192.743484 L119.219637,167.650406 C116.991949,166.36425 115.619637,163.987335 115.619637,161.415023 L115.619637,111.228867 C115.619637,108.656555 116.991949,106.27964 119.219637,104.993484 L162.682123,79.9004061 C164.909811,78.61425 167.654435,78.61425 169.882123,79.9004061 Z" id="Mask-Copy-2" transform="translate(166.282123, 136.321945) rotate(-18.000000) translate(-166.282123, -136.321945) "></path>
                        <path d="M276.657123,80.9044769 L283.299428,84.7394134 C284.459682,85.4092864 285.174428,86.6472627 285.174428,87.9870086 L285.174428,95.6568816 C285.174428,96.9966276 284.459682,98.2346039 283.299428,98.9044769 L276.657123,102.739413 C275.496869,103.409286 274.067377,103.409286 272.907123,102.739413 L266.264818,98.9044769 C265.104564,98.2346039 264.389818,96.9966276 264.389818,95.6568816 L264.389818,87.9870086 C264.389818,86.6472627 265.104564,85.4092864 266.264818,84.7394134 L272.907123,80.9044769 C274.067377,80.2346039 275.496869,80.2346039 276.657123,80.9044769 Z" id="Mask" stroke-width="0.5"></path>
                        <path d="M151.157123,45.9044769 L192.873456,69.9894134 C194.033711,70.6592864 194.748456,71.8972627 194.748456,73.2370086 L194.748456,121.406882 C194.748456,122.746628 194.033711,123.984604 192.873456,124.654477 L151.157123,148.739413 C149.996869,149.409286 148.567377,149.409286 147.407123,148.739413 L105.690789,124.654477 C104.530535,123.984604 103.815789,122.746628 103.815789,121.406882 L103.815789,73.2370086 C103.815789,71.8972627 104.530535,70.6592864 105.690789,69.9894134 L147.407123,45.9044769 C148.567377,45.2346039 149.996869,45.2346039 151.157123,45.9044769 Z" id="Mask" stroke-width="0.5"></path>
                        <path d="M276.657123,133.904477 L289.361605,141.239413 C290.52186,141.909286 291.236605,143.147263 291.236605,144.487009 L291.236605,159.156882 C291.236605,160.496628 290.52186,161.734604 289.361605,162.404477 L276.657123,169.739413 C275.496869,170.409286 274.067377,170.409286 272.907123,169.739413 L260.20264,162.404477 C259.042386,161.734604 258.32764,160.496628 258.32764,159.156882 L258.32764,144.487009 C258.32764,143.147263 259.042386,141.909286 260.20264,141.239413 L272.907123,133.904477 C274.067377,133.234604 275.496869,133.234604 276.657123,133.904477 Z" id="Mask" stroke-width="0.5" transform="translate(274.782123, 151.821945) rotate(44.000000) translate(-274.782123, -151.821945) "></path>
                        <path d="M207.532123,200.120983 L222.517694,208.772907 C223.909999,209.576755 224.767694,211.062326 224.767694,212.670021 L224.767694,229.973869 C224.767694,231.581564 223.909999,233.067136 222.517694,233.870983 L207.532123,242.522907 C206.139818,243.326755 204.424428,243.326755 203.032123,242.522907 L188.046551,233.870983 C186.654246,233.067136 185.796551,231.581564 185.796551,229.973869 L185.796551,212.670021 C185.796551,211.062326 186.654246,209.576755 188.046551,208.772907 L203.032123,200.120983 C204.424428,199.317136 206.139818,199.317136 207.532123,200.120983 Z" id="Mask-Copy" stroke-width="0.6" transform="translate(205.282123, 221.321945) rotate(49.000000) translate(-205.282123, -221.321945) "></path>
                        <path d="M273.032123,5.12098323 L323.091723,34.022907 C324.484028,34.8267546 325.341723,36.3123262 325.341723,37.9200213 L325.341723,95.7238689 C325.341723,97.3315641 324.484028,98.8171357 323.091723,99.6209832 L273.032123,128.522907 C271.639818,129.326755 269.924428,129.326755 268.532123,128.522907 L218.472522,99.6209832 C217.080218,98.8171357 216.222522,97.3315641 216.222522,95.7238689 L216.222522,37.9200213 C216.222522,36.3123262 217.080218,34.8267546 218.472522,34.022907 L268.532123,5.12098323 C269.924428,4.31713566 271.639818,4.31713566 273.032123,5.12098323 Z" id="Mask-Copy" stroke-width="0.6" transform="translate(270.782123, 66.821945) rotate(5.000000) translate(-270.782123, -66.821945) "></path>
                        <path d="M162.157123,224.904477 L203.873456,248.989413 C205.033711,249.659286 205.748456,250.897263 205.748456,252.237009 L205.748456,300.406882 C205.748456,301.746628 205.033711,302.984604 203.873456,303.654477 L162.157123,327.739413 C160.996869,328.409286 159.567377,328.409286 158.407123,327.739413 L116.690789,303.654477 C115.530535,302.984604 114.815789,301.746628 114.815789,300.406882 L114.815789,252.237009 C114.815789,250.897263 115.530535,249.659286 116.690789,248.989413 L158.407123,224.904477 C159.567377,224.234604 160.996869,224.234604 162.157123,224.904477 Z" id="Mask" stroke-width="0.5"></path>
                    </g>
                </g>
            </g>
        </g>
    </g>
</svg>
